<svg width="197" height="60" viewBox="0 0 197 60" fill="none" xmlns="http://www.w3.org/2000/svg">
<g clip-path="url(#clip0)">
<path d="M189.588 15.5846C187.264 13.165 184.499 11.2454 181.454 9.93673C178.408 8.62802 175.142 7.95609 171.844 7.95974H171.725C167.969 7.97826 164.266 8.86304 160.883 10.5496C157.5 12.2361 154.524 14.6819 152.172 17.7087C146.172 9.06069 134.985 5.48858 124.883 9.21626C120.89 10.6683 117.362 13.2332 114.69 16.6277C108.615 8.87919 98.1361 5.76781 88.3654 9.23022C86.6652 9.83486 85.0402 10.6456 83.5244 11.6455C82.6392 5.12359 77.2273 0.0496437 70.7122 -0.000218271C67.541 -0.0155508 64.4725 1.16139 62.0779 3.31148C59.6833 5.46157 58.1259 8.43829 57.6956 11.6874C54.8359 9.80307 51.6196 8.57289 48.2625 8.07941C43.3524 7.35753 38.3464 8.21395 33.9228 10.5326C27.9439 7.34145 21.3015 6.98045 14.4856 9.52142C10.3288 11.0902 6.71286 13.8941 4.09198 17.5811C1.25876 21.5438 -0.179188 26.3891 0.0166874 31.3131C0.0764763 32.8588 0.0610469 34.4624 0.0436889 36.1577C0.0340455 36.9854 0.0263308 37.8131 0.0263308 38.6388V41.0322C0.0263308 43.1663 0.0263308 45.3741 0.0263308 47.5362C-0.00284741 49.6584 0.512937 51.7506 1.52105 53.5994C3.69853 57.5684 7.81817 59.9159 12.1808 59.9159C13.2386 59.9153 14.2921 59.778 15.3169 59.507C16.9687 59.0871 18.5152 58.3082 19.8534 57.2222C21.1915 56.1361 22.2907 54.7679 23.0778 53.2084C24.1407 55.2958 25.758 57.0257 27.7394 58.1946C30.1998 59.6228 33.0471 60.1718 35.8399 59.7563C37.741 59.4946 39.5532 58.763 41.123 57.6236C42.6929 56.4842 43.9741 54.9704 44.8584 53.2104C45.4275 54.3398 46.1649 55.3696 47.0435 56.262C49.358 58.6175 52.5036 59.8899 55.8942 59.852C58.5385 59.8383 61.1083 58.9446 63.2232 57.3031C65.3537 58.9187 67.9316 59.7798 70.5734 59.7583H70.6891C73.3227 59.7626 75.8893 58.9006 78.0181 57.2971C80.1711 58.9706 82.7925 59.8737 85.4859 59.87C86.9956 59.8658 88.4925 59.5835 89.9064 59.0363C92.7114 57.9975 95.0349 55.9039 96.4137 53.1725C98.4176 57.1475 102.46 59.8221 107.214 59.8441H107.274C109.968 59.8667 112.595 58.9787 114.755 57.3151C116.881 58.9475 119.46 59.8268 122.108 59.8221C123.754 59.8187 125.384 59.484 126.906 58.8369C129.668 57.6701 131.776 55.6796 133.045 53.1526C134.256 55.4473 136.119 57.3022 138.383 58.4665C140.646 59.6307 143.201 60.0482 145.701 59.6626C148.613 59.1899 151.142 57.8436 153.013 55.7654C153.723 54.9755 154.326 54.0891 154.804 53.1307C159.304 57.4291 165.172 59.8729 171.296 59.9996H171.75C178.378 59.9697 184.735 57.2696 189.47 52.4725C191.845 50.0715 193.734 47.2055 195.027 44.0418C196.319 40.878 196.99 37.4798 196.999 34.0453C197.008 30.6108 196.356 27.2087 195.081 24.0375C193.806 20.8663 191.932 17.9894 189.571 15.5747L189.588 15.5846Z" fill="#303672"/>
<path d="M57.6889 22.8485C52.5451 15.1696 41.7953 13.7046 34.653 19.6938C34.1314 20.1312 33.8524 20.1371 33.3155 19.7058C28.4335 15.8037 23.051 15.0563 17.3016 17.2131C12.026 19.2009 7.74789 24.5679 8.01157 31.1276C8.10902 33.664 8.02686 36.2064 8.02686 38.7468C8.02686 41.7146 8.02686 44.6843 8.02686 47.6521C8.00354 48.3798 8.16852 49.1006 8.50454 49.7393C9.45991 51.4826 11.6286 52.381 13.633 51.8463C15.6373 51.3116 16.8908 49.7075 16.8927 47.5527C16.8927 42.0107 16.8698 36.4708 16.8927 30.9288C16.9156 27.2395 19.7091 24.5083 23.3051 24.5679C26.9011 24.6275 29.5246 27.3508 29.5265 31.0163C29.5265 36.4575 29.5265 41.8994 29.5265 47.342C29.5029 47.8695 29.5603 48.3976 29.6965 48.9064C30.3691 51.0293 32.4423 52.2677 34.7906 51.9278C35.8082 51.7904 36.7428 51.2717 37.4192 50.4689C38.0956 49.6661 38.4674 48.6342 38.4649 47.5666C38.4859 42.0008 38.4649 36.4171 38.4649 30.8433C38.4416 30.25 38.5002 29.6562 38.6388 29.0802C39.4891 26.0289 42.5463 24.1346 45.848 24.6335C48.8956 25.0927 51.0548 27.6589 51.0548 30.8354C51.0548 36.3773 51.0395 41.9173 51.0643 47.4593C51.0758 50.1269 52.9904 51.9735 55.6119 51.9417C58.1857 51.9079 59.9913 50.0394 59.9932 47.3837C59.9932 41.7424 60.0085 36.103 59.9932 30.4617C60.0014 27.7369 59.1962 25.0768 57.6889 22.8485V22.8485Z" fill="#FCFCFC"/>
<path d="M171.455 16.0002C161.803 16.0479 153.998 24.0972 154 33.9966C154 43.8064 161.779 51.8179 171.142 51.9969C180.551 52.178 188.985 44.3655 189 34.0264C189.013 24.1191 181.056 15.9544 171.455 16.0002ZM171.495 43.4941C169.676 43.4992 167.896 42.9479 166.38 41.9099C164.865 40.8719 163.683 39.3939 162.983 37.663C162.283 35.9322 162.097 34.0262 162.449 32.1865C162.801 30.3467 163.674 28.6559 164.959 27.3281C166.244 26.0002 167.882 25.095 169.666 24.727C171.45 24.3591 173.3 24.545 174.981 25.2611C176.663 25.9772 178.101 27.1914 179.112 28.7499C180.124 30.3085 180.664 32.1413 180.665 34.0165C180.656 36.5227 179.689 38.9243 177.972 40.6991C176.254 42.4739 173.927 43.4784 171.495 43.4941V43.4941Z" fill="#FCFCFC"/>
<path d="M146.14 23.5844C142.443 17.1268 134.547 14.3564 127.579 16.9876C121.966 19.1096 117.713 24.6465 118.015 31.3249C118.126 33.7611 118.034 36.2074 118.034 38.6496C118.034 41.6527 118.045 44.6558 118.034 47.6589C118.021 48.2045 118.115 48.747 118.309 49.2527C118.503 49.7584 118.793 50.2164 119.161 50.5983C119.811 51.2723 120.634 51.7283 121.528 51.9094C122.421 52.0906 123.345 51.9887 124.184 51.6166C125.886 50.8787 126.815 49.411 126.815 47.3446C126.826 41.8019 126.815 36.2571 126.815 30.7143C126.792 30.1213 126.86 29.5284 127.016 28.9582C127.9 26.0645 130.893 24.1334 133.814 24.5987C137.072 25.1178 139.194 27.5939 139.196 30.8853C139.196 36.3307 139.196 41.7753 139.196 47.2194C139.196 47.816 139.196 48.4007 139.384 48.9775C140.036 50.9802 142.121 52.2848 144.161 51.9467C146.513 51.549 147.971 49.9281 147.981 47.5714C147.999 41.8317 148.013 36.09 147.981 30.3484C147.962 27.958 147.325 25.6188 146.14 23.5844V23.5844Z" fill="#FCFCFC"/>
<path d="M110.356 24.0293C106.556 17.0042 98.1789 14.4116 90.9292 16.9564C85.2481 18.9477 80.6865 24.4534 81.0169 31.2734C81.1316 33.6789 81.0363 36.0942 81.0363 38.5056C81.0363 41.5443 81.0363 44.5849 81.0363 47.6235C81.0153 48.1526 81.0975 48.6806 81.278 49.1767C81.4586 49.6728 81.7339 50.127 82.0878 50.5128C83.3667 51.9067 85.4444 52.3766 87.2733 51.6837C89.0478 51.0106 90.1188 49.4455 90.1246 47.3866C90.1421 41.837 90.1246 36.2874 90.1246 30.7378C90.1027 30.1769 90.159 29.6157 90.2917 29.0711C91.1158 26.142 94.1789 24.1448 97.2207 24.5709C100.68 25.0548 102.923 27.502 102.927 30.8254C102.927 36.4009 102.913 41.9903 102.927 47.5718C102.939 50.1245 104.871 51.9824 107.43 51.9943C110.064 52.0063 111.982 50.1464 111.988 47.524C112 41.8111 112.008 36.0962 111.988 30.3814C111.981 28.1561 111.419 25.9695 110.356 24.0293V24.0293Z" fill="#FCFCFC"/>
<path d="M70.4766 23C67.8259 23 66.01 24.8486 66.0043 27.5622C66.0043 30.8754 66.0043 34.1907 66.0043 37.5039C66.0043 40.8172 65.9947 44.1344 66.0043 47.4477C66.0139 50.1355 67.8875 52.0138 70.5055 51.9999C73.1235 51.9861 74.9875 50.1157 74.9913 47.4239C75.0029 40.7948 75.0029 34.1656 74.9913 27.5364C74.9913 24.8348 73.137 22.996 70.4766 23Z" fill="#FCFCFC"/>
<path d="M70.5408 8C69.8136 7.99974 69.0934 8.14092 68.4214 8.41548C67.7494 8.69003 67.1388 9.09258 66.6244 9.60015C66.11 10.1077 65.7018 10.7104 65.4233 11.3737C65.1448 12.037 65.0013 12.748 65.001 13.466C64.9871 14.1878 65.119 14.905 65.3891 15.5758C65.6593 16.2466 66.0621 16.8574 66.5741 17.3727C67.0861 17.888 67.697 18.2973 68.3711 18.5767C69.0452 18.8561 69.7689 19 70.5 19C71.2311 19 71.9548 18.8561 72.6289 18.5767C73.303 18.2973 73.9139 17.888 74.4259 17.3727C74.9379 16.8574 75.3407 16.2466 75.6108 15.5758C75.881 14.905 76.0129 14.1878 75.999 13.466C75.99 12.0323 75.4144 10.6587 74.3949 9.63774C73.3754 8.61679 71.9926 8.02916 70.5408 8V8Z" fill="#FCFCFC"/>
<path d="M175.046 28.0009C174.654 27.9911 174.263 28.0603 173.897 28.2045C173.531 28.3487 173.196 28.565 172.913 28.8409C172.63 29.1168 172.404 29.4469 172.247 29.8121C172.091 30.1773 172.007 30.5703 172.001 30.9684C171.991 31.3666 172.06 31.7629 172.204 32.1333C172.349 32.5037 172.566 32.8407 172.843 33.1239C173.119 33.407 173.449 33.6306 173.813 33.7811C174.177 33.9316 174.567 34.006 174.96 33.9996C176.669 34.0136 177.968 32.754 178 31.0561C178.006 30.6582 177.935 30.2629 177.79 29.8931C177.645 29.5234 177.428 29.1866 177.153 28.9024C176.879 28.6181 176.551 28.392 176.189 28.2373C175.828 28.0825 175.439 28.0022 175.046 28.0009V28.0009Z" fill="#FCFCFC"/>
</g>
<defs>
<clipPath id="clip0">
<rect width="197" height="60" fill="white"/>
</clipPath>
</defs>
</svg>
